<svg xmlns="http://www.w3.org/2000/svg" width="71" height="71">
    <g>
        <path d="M60.105 4.898A58.55 58.55 0 0 0 45.653.415a.22.22 0 0 0-.232.11c-.624 1.11-1.315 2.558-1.8 3.696-5.457-.817-10.886-.817-16.232 0-.484-1.163-1.201-2.586-1.828-3.696-.048-.082-.14-.124-.232-.11-5.071.873-9.924 2.403-14.452 4.482-.039.017-.073.045-.095.082C1.578 18.731-.944 32.144.293 45.391c.006.065.042.127.092.166 6.073 4.46 11.956 7.167 17.729 8.962a.23.23 0 0 0 .249-.082 42.08 42.08 0 0 0 3.627-5.9c.062-.121.003-.265-.123-.313-1.931-.733-3.77-1.626-5.538-2.64-.14-.082-.151-.282-.022-.378a30.34 30.34 0 0 0 1.1-.862.22.22 0 0 1 .229-.031c11.62 5.305 24.199 5.305 35.682 0 .076-.037.165-.025.232.028a28.31 28.31 0 0 0 1.103.865c.129.096.12.296-.02.378-1.769 1.034-3.607 1.907-5.541 2.637-.126.048-.182.194-.12.316a47.25 47.25 0 0 0 3.624 5.897c.056.079.157.113.249.084 5.801-1.795 11.684-4.502 17.757-8.962.053-.039.087-.099.092-.163 1.48-15.315-2.48-28.618-10.497-40.412a.18.18 0 0 0-.092-.085zM23.726 37.325c-3.498 0-6.381-3.212-6.381-7.156s2.827-7.156 6.381-7.156c3.582 0 6.437 3.24 6.381 7.156 0 3.944-2.827 7.156-6.381 7.156zm23.592 0c-3.498 0-6.381-3.212-6.381-7.156s2.826-7.156 6.381-7.156c3.582 0 6.437 3.24 6.381 7.156 0 3.944-2.799 7.156-6.381 7.156z" fill="#fff"/>
    </g>
</svg>